<?xml version="1.0" ?><svg viewBox="0 0 512 512" xmlns="http://www.w3.org/2000/svg"><title/><g data-name="Layer 6" id="Layer_6"><path d="M497.65277,81.14795l-.02972-.02722c-.02515-.022-.04846-.04559-.07373-.0675A24.55831,24.55831,0,0,0,481.33008,74.96H30.66992a24.53808,24.53808,0,0,0-16.19531,6.07227c-.03064.02655-.059.05518-.08942.08185l-.04449.04077A24.59289,24.59289,0,0,0,6,99.62988V412.37012a24.57793,24.57793,0,0,0,8.45068,18.57666c.00977.00854.02057.01575.0304.02441.04913.04248.10071.08057.15118.121A24.55421,24.55421,0,0,0,30.66992,437.04H65.73a5,5,0,0,0,0-10H30.66992a14.66581,14.66581,0,0,1-3.52765-.44165L194.19592,306.56946c19.88159,16.64514,43.09448,30.44189,59.433,39.24255a4.99868,4.99868,0,0,0,4.74219,0c16.33826-8.80054,39.5506-22.59692,59.43292-39.24261L484.85846,426.59888a14.69018,14.69018,0,0,1-3.52838.44116H95.73a5,5,0,0,0,0,10h385.6001a24.53545,24.53545,0,0,0,16.07416-5.97534c.03406-.02771.06934-.05347.10278-.08228l.01837-.01465A24.59525,24.59525,0,0,0,506,412.37012V99.62988A24.57712,24.57712,0,0,0,497.65277,81.14795Zm-172.13263,218.652c9.90387-9.16364,17.39874-18.08777,22.31238-26.58508,19.18066-31.03876,22.41907-62.44415,9.00281-83.51288L493.514,91.49567A14.61747,14.61747,0,0,1,496,99.62988V412.37012a14.6017,14.6017,0,0,1-2.48822,8.13257ZM18.486,420.50439A14.61767,14.61767,0,0,1,16,412.37012V99.62988a14.60235,14.60235,0,0,1,2.48822-8.13263l136.67755,98.20551c-13.4162,21.07666-10.17633,52.4776,9.00171,83.51208,4.91351,8.49713,12.40814,17.421,22.31238,26.58508ZM256,335.72168c-16.57959-9.05957-39.373-22.87012-58.272-39.26758-11.44336-9.93311-19.8335-19.45557-24.937-28.30273-.02588-.04443-.05225-.08838-.0791-.13232-18.26611-29.52295-20.82861-58.77246-6.67969-76.34326a36.44678,36.44678,0,0,1,5.57129-5.57764c10.60107-8.57178,26.66309-12.28516,41.91309-9.69092A55.54319,55.54319,0,0,1,251.748,202.53076a5,5,0,0,0,8.50439-.001c10.52295-17.0166,25.14551-23.31152,35.55908-25.59619a4.99991,4.99991,0,0,0-2.14258-9.76758,64.26592,64.26592,0,0,0-37.67969,23.95605,64.91668,64.91668,0,0,0-40.79639-24.57324C197.19238,163.48926,178.083,168,165.32227,178.31689a46.8018,46.8018,0,0,0-3.92157,3.55219L27.14148,85.40118A14.68728,14.68728,0,0,1,30.66992,84.96H481.33008a14.66113,14.66113,0,0,1,3.52777.44171L350.59924,181.86908a46.61961,46.61961,0,0,0-3.91223-3.54437,56.89873,56.89873,0,0,0-20.59863-10.3252,5.00006,5.00006,0,1,0-2.65723,9.64063,46.849,46.849,0,0,1,16.97119,8.46289,36.44825,36.44825,0,0,1,5.57324,5.58252c14.14111,17.561,11.57861,46.81055-6.6875,76.3335-.02686.04395-.05322.08789-.0791.13232-5.10352,8.84717-13.49365,18.36963-24.936,28.30176C295.373,312.85156,272.57959,326.66211,256,335.72168Z"/></g></svg>