<?xml version="1.0" ?><!DOCTYPE svg  PUBLIC '-//W3C//DTD SVG 1.1//EN'  'http://www.w3.org/Graphics/SVG/1.1/DTD/svg11.dtd'><svg height="512px" style="enable-background:new 0 0 512 512;" version="1.1" viewBox="0 0 512 512" width="512px" xml:space="preserve" xmlns="http://www.w3.org/2000/svg" xmlns:xlink="http://www.w3.org/1999/xlink"><g id="_x31_66_x2C__Heart_x2C__Love_x2C__Like_x2C__Twitter"><g id="XMLID_5035_"><g id="XMLID_5036_"><path d="M255.94,461.37c-2.63,0-5.21-1.07-7.07-2.931c-26.57-26.569-52.94-50.149-78.43-72.96     c-13.56-12.12-26.36-23.569-38.69-35.02c-20.92-19.46-35.92-34.67-48.61-49.3c-15.51-17.88-27.35-34.79-36.19-51.7     c-6.46-12.37-11.41-25.1-14.71-37.83c-3.48-13.47-5.25-27.45-5.24-41.53c0-8.89,0.99-17.77,2.93-26.38     c1.89-8.39,4.71-16.58,8.36-24.36c1.64-3.49,5.2-5.75,9.06-5.75c1.47,0,2.9,0.32,4.25,0.96c4.99,2.34,7.14,8.31,4.79,13.3     C50.16,141.13,47,155.34,47,170.1c0.02,24.36,5.81,47.3,17.68,70.11c10.52,20.18,25.76,40.39,47.97,63.609     c20.44,21.421,44.87,43.271,70.73,66.4c23.47,20.99,47.74,42.7,72.55,67.07c19.67-19.32,39.05-36.971,55.41-51.69     c1.84-1.649,4.21-2.56,6.68-2.56c2.84,0,5.55,1.21,7.44,3.31c1.67,1.86,2.58,4.25,2.57,6.74c-0.021,2.81-1.221,5.5-3.32,7.39     c-18.391,16.53-40.101,36.351-61.7,57.96C261.14,460.3,258.569,461.37,255.94,461.37z M355.26,369.66     c-2.82,0-5.53-1.2-7.42-3.301c-3.7-4.09-3.37-10.42,0.72-14.119c1.84-1.66,4.221-2.58,6.7-2.58c2.82,0,5.53,1.21,7.43,3.3     c3.69,4.09,3.37,10.43-0.729,14.13c0,0,0,0-0.01,0C360.109,368.75,357.74,369.66,355.26,369.66z M391.83,335.56     c-2.71,0-5.25-1.06-7.15-3c-3.86-3.939-3.79-10.29,0.15-14.14c27.29-26.69,45.83-49.17,58.35-70.75     c14.86-25.64,21.79-50.29,21.82-77.57c-0.01-26.55-10.36-51.52-29.16-70.32c-18.82-18.79-43.83-29.14-70.44-29.15     c-24.75,0.08-42.869,5.74-58.75,18.34c-14.399,11.48-27.67,29.98-41.77,58.24c-1.7,3.4-5.13,5.52-8.94,5.52     c-3.82,0-7.24-2.12-8.95-5.52c-14.1-28.26-27.37-46.76-41.77-58.24c-15.88-12.6-34-18.26-58.75-18.34     c-7.3,0-14.57,0.8-21.63,2.36c-2.92,0.65-6.04-0.08-8.38-1.93c-1.79-1.42-3.05-3.43-3.54-5.67c-0.16-0.7-0.24-1.42-0.24-2.13     c-0.01-2.25,0.75-4.46,2.15-6.24c1.42-1.79,3.44-3.06,5.68-3.56c8.47-1.88,17.21-2.83,25.96-2.83     c14.43-0.06,27.77,1.87,39.6,5.69c11.61,3.74,22.26,9.47,31.64,17.03c13.84,11.1,25.98,26.36,38.23,48.04     c12.24-21.68,24.39-36.94,38.22-48.04c9.38-7.56,20.029-13.29,31.64-17.03c11.84-3.82,25.14-5.75,39.6-5.69     c16.16,0,31.82,3.16,46.57,9.39c14.24,6.02,27.03,14.64,38.01,25.61c10.98,10.97,19.601,23.75,25.62,37.97     c6.23,14.73,9.391,30.37,9.4,46.5c0.01,15.64-2.17,31.14-6.49,46.05c-4.04,13.96-10.11,27.95-18.04,41.56     c-7.31,12.59-16.229,25.12-27.26,38.29c-9.521,11.359-20.76,23.37-34.391,36.71C396.939,334.55,394.46,335.56,391.83,335.56z      M78.02,94.69c-3.05,0-5.9-1.37-7.81-3.74c-3.45-4.3-2.76-10.61,1.54-14.06c0.01,0,0.01-0.01,0.02-0.01     c1.76-1.41,3.98-2.19,6.24-2.19c3.05,0,5.89,1.36,7.8,3.74c1.67,2.08,2.43,4.69,2.14,7.35c-0.29,2.65-1.59,5.03-3.67,6.7     c0,0,0,0-0.01,0.01C82.48,93.93,80.32,94.69,78.02,94.69z"/></g></g></g><g id="Layer_1"/></svg>