<?xml version="1.0" ?><svg enable-background="new 0 0 64 64" version="1.1" viewBox="0 0 64 64" xml:space="preserve" xmlns="http://www.w3.org/2000/svg" xmlns:xlink="http://www.w3.org/1999/xlink"><g id="Layer_1"/><g id="Layer_2"><g><path d="M48.208,39.534c-0.552,0-1,0.447-1,1v7.27h-28.51c-0.241,0-0.474,0.029-0.702,0.071c-0.053,0.01-0.105,0.019-0.157,0.031    c-0.221,0.05-0.436,0.114-0.641,0.199c-0.026,0.011-0.05,0.025-0.076,0.037c-0.113,0.05-0.226,0.101-0.334,0.161v-27.22    c0-0.553-0.448-1-1-1c-0.552,0-1,0.447-1,1v30.631c0,1.032,0.403,2.013,1.149,2.773c0.747,0.732,1.727,1.136,2.761,1.136h28.04    c1.362,0,2.47-1.108,2.47-2.47v-1.052c0-0.553-0.448-1-1-1s-1,0.447-1,1v1.052c0,0.259-0.211,0.47-0.47,0.47h-28.04    c-0.507,0-0.99-0.2-1.346-0.55c-0.364-0.371-0.564-0.854-0.564-1.359c0-1.054,0.857-1.91,1.91-1.91h29.51c0.552,0,1-0.447,1-1    v-8.27C49.208,39.982,48.76,39.534,48.208,39.534z"/><path d="M46.388,8.373h-28.77c-1.561,0-2.83,1.207-2.83,2.69v5.699c0,0.553,0.448,1,1,1c0.552,0,1-0.447,1-1v-5.699    c0-0.374,0.38-0.69,0.83-0.69h28.77c0.452,0,0.82,0.31,0.82,0.69v26.42c0,0.553,0.448,1,1,1s1-0.447,1-1v-26.42    C49.208,9.58,47.943,8.373,46.388,8.373z"/><path d="M33.257,32.584l-1.005,1.004c-0.183,0.182-0.323,0.182-0.506,0l-1.004-1.004c-0.842-0.842-1.961-1.306-3.151-1.306    c-1.047,0-2.064,0.37-2.862,1.041c-0.923,0.775-1.461,1.889-1.516,3.135c-0.058,1.348,0.457,2.669,1.414,3.626l5.706,5.705    c0.459,0.46,1.063,0.689,1.667,0.689c0.604,0,1.208-0.229,1.667-0.689l5.893-5.893c0.846-0.846,1.312-1.965,1.312-3.151    c0-1.19-0.466-2.312-1.312-3.157C37.824,30.85,34.998,30.85,33.257,32.584z M38.144,37.479l-5.893,5.893    c-0.14,0.139-0.366,0.139-0.506,0l-5.706-5.705c-0.553-0.554-0.864-1.348-0.83-2.126c0.029-0.679,0.314-1.279,0.804-1.689    c0.445-0.374,0.99-0.572,1.576-0.572c0.656,0,1.273,0.256,1.737,0.72l1.004,1.004c0.919,0.92,2.416,0.92,3.333,0L34.669,34    c0.961-0.959,2.52-0.957,3.476-0.002c0.468,0.468,0.726,1.087,0.726,1.743C38.87,36.394,38.612,37.011,38.144,37.479z"/><path d="M39.558,15.267c-1.734-1.734-4.561-1.734-6.302,0l-1.084,1.082c-0.118,0.119-0.228,0.12-0.349,0l-1.083-1.082    c-0.842-0.842-1.961-1.306-3.151-1.306c-1.289,0-2.516,0.56-3.366,1.535c-1.531,1.758-1.384,4.48,0.336,6.2l5.85,5.85    c0.424,0.425,0.989,0.658,1.589,0.658c0.601,0,1.165-0.233,1.589-0.658l5.971-5.971c0.846-0.846,1.312-1.965,1.312-3.151    C40.87,17.233,40.404,16.112,39.558,15.267z M38.144,20.161l-5.972,5.971c-0.118,0.119-0.228,0.12-0.349,0l-5.85-5.85    c-0.963-0.963-1.071-2.521-0.242-3.472c0.478-0.548,1.137-0.85,1.858-0.85c0.656,0,1.273,0.256,1.737,0.72l1.083,1.082    c0.85,0.851,2.332,0.85,3.177,0l1.082-1.08c0.961-0.958,2.52-0.958,3.476-0.002c0.468,0.468,0.726,1.087,0.726,1.743    C38.87,19.076,38.612,19.693,38.144,20.161z"/></g></g></svg>