<?xml version="1.0" ?><svg data-name="Layer 1" id="Layer_1" viewBox="0 0 512 512" xmlns="http://www.w3.org/2000/svg"><path d="M440.26,66.44H181.33a6.26,6.26,0,0,0-6.26,6.26V120H124.29a6.26,6.26,0,0,0-6.26,6.26v49.43H71.74a6.27,6.27,0,0,0-6.26,6.27V439.3a6.26,6.26,0,0,0,6.26,6.26H440.26a6.26,6.26,0,0,0,6.26-6.26V72.7A6.26,6.26,0,0,0,440.26,66.44Zm-309.7,66H357.73V433H297.19V181.91a6.27,6.27,0,0,0-6.26-6.27H130.56Zm76.1,55.7h38.27v56.16l-14-16.14c-2.39-2.74-7.92-2.74-10.3,0l-14,16.14ZM78,188.17H194.14v73a6.28,6.28,0,0,0,4.07,5.88,6.36,6.36,0,0,0,6.92-1.78l20.67-23.85,20.66,23.85a6.23,6.23,0,0,0,4.73,2.17,6.61,6.61,0,0,0,2.19-.39,6.28,6.28,0,0,0,4.08-5.88v-73h27.21V433H78ZM434,433H370.25V126.21A6.26,6.26,0,0,0,364,120H187.59V79H434Z"/></svg>